<?xml version="1.0" encoding="UTF-8" standalone="no"?>
<svg
   version="1.2"
   width="67.400002mm"
   height="67.400002mm"
   viewBox="0 0 6740.0002 6740.0004"
   preserveAspectRatio="xMidYMid"
   fill-rule="evenodd"
   stroke-width="28.222"
   stroke-linejoin="round"
   xml:space="preserve"
   id="svg16"
   sodipodi:docname="logo.svg"
   inkscape:version="1.4.2 (ebf0e940d0, 2025-05-08)"
   xmlns:inkscape="http://www.inkscape.org/namespaces/inkscape"
   xmlns:sodipodi="http://sodipodi.sourceforge.net/DTD/sodipodi-0.dtd"
   xmlns="http://www.w3.org/2000/svg"
   xmlns:svg="http://www.w3.org/2000/svg"
   xmlns:ooo="http://xml.openoffice.org/svg/export"><sodipodi:namedview
   id="namedview16"
   pagecolor="#ffffff"
   bordercolor="#000000"
   borderopacity="0.25"
   inkscape:showpageshadow="2"
   inkscape:pageopacity="0.0"
   inkscape:pagecheckerboard="0"
   inkscape:deskcolor="#d1d1d1"
   inkscape:document-units="mm"
   inkscape:zoom="2.7255988"
   inkscape:cx="169.13715"
   inkscape:cy="118.32262"
   inkscape:window-width="1920"
   inkscape:window-height="1011"
   inkscape:window-x="0"
   inkscape:window-y="0"
   inkscape:window-maximized="1"
   inkscape:current-layer="g16" />
 <defs
   class="ClipPathGroup"
   id="defs2">
  <clipPath
   id="presentation_clip_path"
   clipPathUnits="userSpaceOnUse">
   <rect
   x="0"
   y="0"
   width="8953"
   height="7795"
   id="rect1" />
  </clipPath>
  <clipPath
   id="presentation_clip_path_shrink"
   clipPathUnits="userSpaceOnUse">
   <rect
   x="8"
   y="7"
   width="8936"
   height="7780"
   id="rect2" />
  </clipPath>
 </defs>
 <defs
   class="TextShapeIndex"
   id="defs3">
  <g
   ooo:slide="id1"
   ooo:id-list="id3"
   id="g2" />
 </defs>
 <defs
   class="EmbeddedBulletChars"
   id="defs12">
  <g
   id="bullet-char-template-57356"
   transform="matrix(4.8828125e-4,0,0,-4.8828125e-4,0,0)">
   <path
   d="M 580,1141 1163,571 580,0 -4,571 Z"
   id="path3" />
  </g>
  <g
   id="bullet-char-template-57354"
   transform="matrix(4.8828125e-4,0,0,-4.8828125e-4,0,0)">
   <path
   d="M 8,1128 H 1137 V 0 H 8 Z"
   id="path4" />
  </g>
  <g
   id="bullet-char-template-10146"
   transform="matrix(4.8828125e-4,0,0,-4.8828125e-4,0,0)">
   <path
   d="M 174,0 602,739 174,1481 1456,739 Z M 1358,739 309,1346 659,739 Z"
   id="path5" />
  </g>
  <g
   id="bullet-char-template-10132"
   transform="matrix(4.8828125e-4,0,0,-4.8828125e-4,0,0)">
   <path
   d="M 2015,739 1276,0 H 717 l 543,543 H 174 v 393 h 1086 l -543,545 h 557 z"
   id="path6" />
  </g>
  <g
   id="bullet-char-template-10007"
   transform="matrix(4.8828125e-4,0,0,-4.8828125e-4,0,0)">
   <path
   d="m 0,-2 c -7,16 -16,29 -25,39 l 381,530 c -94,256 -141,385 -141,387 0,25 13,38 40,38 9,0 21,-2 34,-5 21,4 42,12 65,25 l 27,-13 111,-251 280,301 64,-25 24,25 c 21,-10 41,-24 62,-43 C 886,937 835,863 770,784 769,783 710,716 594,584 L 774,223 c 0,-27 -21,-55 -63,-84 l 16,-20 C 717,90 699,76 672,76 641,76 570,178 457,381 L 164,-76 c -22,-34 -53,-51 -92,-51 -42,0 -63,17 -64,51 -7,9 -10,24 -10,44 0,9 1,19 2,30 z"
   id="path7" />
  </g>
  <g
   id="bullet-char-template-10004"
   transform="matrix(4.8828125e-4,0,0,-4.8828125e-4,0,0)">
   <path
   d="M 285,-33 C 182,-33 111,30 74,156 52,228 41,333 41,471 c 0,78 14,145 41,201 34,71 87,106 158,106 53,0 88,-31 106,-94 l 23,-176 c 8,-64 28,-97 59,-98 l 735,706 c 11,11 33,17 66,17 42,0 63,-15 63,-46 V 965 c 0,-36 -10,-64 -30,-84 L 442,47 C 390,-6 338,-33 285,-33 Z"
   id="path8" />
  </g>
  <g
   id="bullet-char-template-9679"
   transform="matrix(4.8828125e-4,0,0,-4.8828125e-4,0,0)">
   <path
   d="M 813,0 C 632,0 489,54 383,161 276,268 223,411 223,592 c 0,181 53,324 160,431 106,107 249,161 430,161 179,0 323,-54 432,-161 108,-107 162,-251 162,-431 0,-180 -54,-324 -162,-431 C 1136,54 992,0 813,0 Z"
   id="path9" />
  </g>
  <g
   id="bullet-char-template-8226"
   transform="matrix(4.8828125e-4,0,0,-4.8828125e-4,0,0)">
   <path
   d="m 346,457 c -73,0 -137,26 -191,78 -54,51 -81,114 -81,188 0,73 27,136 81,188 54,52 118,78 191,78 73,0 134,-26 185,-79 51,-51 77,-114 77,-187 0,-75 -25,-137 -76,-188 -50,-52 -112,-78 -186,-78 z"
   id="path10" />
  </g>
  <g
   id="bullet-char-template-8211"
   transform="matrix(4.8828125e-4,0,0,-4.8828125e-4,0,0)">
   <path
   d="M -4,459 H 1135 V 606 H -4 Z"
   id="path11" />
  </g>
  <g
   id="bullet-char-template-61548"
   transform="matrix(4.8828125e-4,0,0,-4.8828125e-4,0,0)">
   <path
   d="m 173,740 c 0,163 58,303 173,419 116,115 255,173 419,173 163,0 302,-58 418,-173 116,-116 174,-256 174,-419 0,-163 -58,-303 -174,-418 C 1067,206 928,148 765,148 601,148 462,206 346,322 231,437 173,577 173,740 Z"
   id="path12" />
  </g>
 </defs>
 <g
   id="g12">
  <g
   id="id2"
   class="Master_Slide">
   <g
   id="bg-id2"
   class="Background" />
   <g
   id="bo-id2"
   class="BackgroundObjects" />
  </g>
 </g>
 <g
   class="SlideGroup"
   id="g16"
   transform="matrix(1,0,0,1.0001485,-1103.9996,-532.079)">
  <g
   id="g15"
   inkscape:export-filename="logo.svg"
   inkscape:export-xdpi="100"
   inkscape:export-ydpi="100">
   <g
   id="container-id1">
    <g
   id="id1"
   class="Slide"
   clip-path="url(#presentation_clip_path)">
     <g
   class="Page"
   id="g14">
      <g
   class="com.sun.star.drawing.ClosedBezierShape"
   id="g13">
       <g
   id="id3">
        <rect
   class="BoundingBox"
   stroke="none"
   fill="none"
   x="1110"
   y="532"
   width="6734"
   height="6733"
   id="rect12" />
        <path
   fill="#cbaa57"
   stroke="none"
   d="m 5791,1607 -154,130 c 20,13 40,26 60,39 23,14 46,28 69,41 z m -1786,-331 -41,207 c 23,-3 46,-8 69,-12 26,-5 52,-10 77,-16 z m -2194,2685 175,95 c 2,-26 4,-51 6,-76 2,-29 4,-57 5,-85 z m 5111,233 -9,77 -15,-2 c -14,-2 -62,-9 -75,-7 -7,2 -21,15 -26,20 -15,15 -26,34 -35,54 -10,23 -17,47 -20,73 -4,36 -1,73 19,104 17,27 40,43 69,47 22,3 46,1 64,-14 21,-19 35,-66 42,-94 12,-46 30,-118 54,-157 18,-29 41,-50 69,-64 32,-14 65,-17 99,-12 61,8 110,39 148,92 45,64 47,153 38,230 -4,34 -10,69 -20,102 -10,31 -22,60 -38,88 l -3,6 -22,6 -5,-2 c -16,-7 -33,-13 -49,-18 -25,-7 -53,-12 -78,-16 l -15,-3 9,-75 15,1 c 13,2 61,7 72,5 10,-5 24,-27 30,-37 14,-23 21,-50 24,-78 4,-33 3,-69 -15,-98 -15,-24 -36,-37 -63,-40 -15,-2 -30,-1 -44,6 -13,7 -22,18 -30,32 -14,29 -27,79 -35,111 -9,34 -21,82 -37,112 -16,32 -39,57 -70,73 -32,16 -68,18 -103,13 -69,-9 -124,-47 -162,-110 -44,-71 -51,-156 -41,-239 5,-39 12,-78 25,-115 13,-36 30,-71 50,-103 l 7,-11 12,5 c 17,7 35,14 54,19 31,8 63,13 95,17 z m 126,-474 c 2,27 5,55 8,82 2,16 6,62 12,77 1,0 3,1 4,1 11,2 41,-1 54,-1 l 14,-1 9,76 -16,1 c -33,4 -67,7 -100,11 l -118,20 -9,-76 15,-3 c 11,-2 51,-9 61,-15 0,-1 0,-2 0,-3 1,-12 0,-26 -1,-38 -1,-23 -4,-47 -7,-70 -2,-16 -4,-32 -7,-48 -12,2 -23,3 -35,5 -61,8 -124,17 -185,29 l 9,83 c 6,46 13,93 24,139 28,4 57,6 86,8 l 13,1 8,75 h -17 c -52,0 -104,2 -156,8 l -14,2 -3,-15 c -5,-29 -10,-59 -13,-88 -4,-36 -8,-72 -11,-108 -5,-46 -9,-92 -15,-137 -7,-58 -14,-116 -23,-174 l -2,-17 49,-7 5,9 c 7,13 16,25 25,37 34,-1 69,-5 103,-8 63,-7 126,-15 189,-24 67,-9 138,-18 205,-32 5,-1 20,-4 22,-6 4,-10 2,-55 2,-66 l -1,-16 68,-9 1,17 c 6,62 12,123 19,185 l 35,272 c 3,27 5,53 6,80 v 8 l -15,14 h -7 c -43,-3 -88,-1 -131,3 l -15,1 -8,-72 15,-3 c 15,-3 31,-5 46,-9 4,0 10,-2 15,-3 1,-4 2,-9 2,-12 3,-38 -2,-85 -7,-123 -3,-27 -7,-54 -11,-81 -66,6 -131,13 -197,21 z m -459,-573 c 8,25 16,50 25,75 16,44 35,90 60,130 30,-3 60,-8 90,-14 l 12,-2 27,73 -18,4 c -54,14 -108,30 -161,47 l -13,5 -5,-14 c -12,-26 -23,-53 -33,-81 l -59,-169 -26,-76 c -18,-49 -37,-98 -57,-147 l -6,-16 46,-20 7,8 c 11,11 23,21 35,30 80,-29 158,-61 236,-94 62,-27 124,-54 186,-82 11,-6 55,-25 64,-34 l 1,-1 c -1,-6 -3,-14 -5,-20 -4,-15 -8,-31 -12,-47 l -4,-15 63,-27 6,17 c 18,56 37,111 57,167 17,46 35,93 54,139 l 6,16 -64,27 -6,-14 c -5,-11 -24,-55 -30,-62 -2,0 -7,0 -9,1 -10,2 -28,10 -39,14 -33,13 -65,27 -98,40 l -209,87 c -41,17 -81,36 -121,55 z m -45,-457 c -19,14 -38,29 -55,45 -22,22 -44,47 -65,70 l -9,9 -10,-6 c -46,-28 -94,-59 -136,-95 -34,-29 -65,-62 -93,-98 -69,-86 -120,-189 -117,-305 3,-108 46,-195 120,-265 75,-71 163,-106 262,-92 110,16 200,95 270,183 29,37 56,75 78,117 22,39 40,80 55,122 l 2,6 -7,20 -5,4 c -42,24 -83,54 -121,85 l -11,10 -46,-57 12,-12 c 17,-16 34,-34 49,-54 4,-29 -1,-57 -10,-85 -13,-35 -33,-68 -56,-96 -44,-56 -98,-94 -166,-98 -70,-5 -131,29 -183,78 -57,53 -99,119 -108,202 -8,73 10,138 54,194 25,30 56,53 89,72 15,-12 29,-25 44,-38 8,-8 39,-37 47,-50 -7,-18 -42,-66 -51,-78 l -9,-13 52,-49 10,14 c 32,41 64,83 96,123 28,36 57,71 87,106 l 11,13 -44,41 -9,-7 c -9,-5 -18,-11 -27,-16 z m -811,-638 c 5,-12 9,-47 10,-59 l 11,-78 c -33,-21 -67,-42 -100,-63 -29,-18 -58,-36 -87,-54 l -35,31 c -17,14 -33,31 -48,47 -3,3 -6,7 -8,11 7,10 37,32 47,39 l 12,9 -36,68 -14,-10 c -31,-22 -63,-42 -95,-62 -29,-18 -58,-36 -88,-52 l -15,-8 36,-69 13,8 c 8,4 35,18 42,18 7,-1 24,-14 29,-18 49,-37 97,-77 144,-117 l 347,-294 77,48 -68,588 c -3,28 -5,55 -7,83 -1,8 -2,27 -1,33 3,9 31,29 38,34 l 12,9 -36,68 -14,-9 c -39,-27 -80,-54 -120,-79 -44,-27 -88,-54 -132,-79 l -15,-8 36,-69 14,8 c 9,5 40,23 51,26 z m -911,-379 c 12,-35 21,-73 29,-108 16,-67 31,-134 45,-201 15,-72 32,-148 43,-221 1,-5 4,-21 3,-25 -8,-7 -47,-20 -57,-24 l -14,-5 16,-72 15,5 c 55,15 110,30 166,44 l 247,59 c 24,6 47,13 70,21 l 8,3 6,21 -2,6 c -18,43 -31,90 -43,135 l -4,15 -65,-16 3,-16 c 3,-17 6,-34 8,-50 1,-5 2,-12 3,-17 -3,-2 -8,-5 -10,-6 -32,-16 -74,-27 -109,-36 -24,-6 -49,-11 -73,-16 -18,69 -35,138 -50,208 24,8 49,15 74,21 14,3 55,15 70,14 0,-1 1,-3 2,-4 6,-11 14,-43 18,-55 l 4,-15 68,17 -4,17 c -8,35 -17,71 -25,106 l -24,127 -68,-17 2,-16 c 2,-12 9,-55 8,-68 l -2,-1 c -10,-5 -22,-9 -33,-12 -21,-7 -42,-12 -63,-18 -15,-3 -29,-6 -44,-9 -3,13 -5,25 -8,38 -14,65 -28,132 -38,198 l 74,20 c 42,11 85,19 128,24 13,-28 25,-56 37,-85 l 5,-13 68,17 -7,18 c -17,53 -33,107 -46,162 l -4,15 -14,-2 c -27,-5 -53,-11 -80,-17 -32,-8 -64,-17 -97,-26 -41,-11 -82,-22 -123,-33 -53,-13 -105,-25 -158,-36 l -16,-4 11,-52 10,-2 c 14,-4 27,-8 40,-13 z m -598,-15 c -4,-13 -21,-43 -27,-53 l -38,-67 c -38,7 -76,14 -114,21 -33,7 -66,13 -99,20 l -9,48 c -4,23 -6,47 -8,70 0,5 -1,10 0,14 v 1 c 11,2 48,-3 59,-4 l 15,-1 13,77 -17,2 c -37,5 -73,11 -110,19 -32,6 -65,13 -98,22 l -16,4 -13,-78 15,-4 c 8,-2 37,-10 43,-14 4,-6 9,-28 11,-35 16,-62 29,-126 41,-190 l 92,-468 87,-17 296,498 c 14,23 28,46 43,68 4,6 15,22 19,27 8,4 41,0 49,-1 l 15,-2 13,77 -16,3 c -47,7 -93,15 -140,24 -49,9 -98,20 -147,32 l -16,3 -13,-77 15,-4 c 10,-2 44,-10 55,-15 z m -924,339 c -35,-83 -71,-165 -110,-246 -30,-65 -61,-129 -93,-193 -6,-11 -28,-57 -36,-66 h -1 -1 c -5,1 -13,4 -17,6 -14,6 -28,12 -42,18 l -13,6 -31,-66 14,-8 c 50,-25 99,-51 147,-78 41,-23 82,-47 122,-71 l 14,-9 32,66 -13,8 c -9,6 -48,31 -53,39 -1,2 0,7 1,9 3,12 12,30 17,41 15,34 31,68 46,102 l 101,219 c 20,42 41,84 62,125 22,-11 44,-22 66,-34 39,-22 79,-47 113,-77 -6,-33 -13,-65 -21,-97 l -3,-13 63,-36 6,19 c 17,57 37,114 59,169 l 5,14 -12,8 c -23,15 -47,29 -71,43 l -148,80 -67,36 c -43,23 -87,50 -130,75 l -14,9 -22,-48 6,-9 c 9,-13 17,-26 24,-41 z m -463,394 c -52,-72 -105,-142 -160,-211 -44,-55 -88,-109 -133,-163 -8,-10 -39,-48 -50,-54 v -1 h -1 c -5,3 -12,8 -16,11 -12,9 -24,19 -37,28 l -11,10 -45,-56 13,-11 c 42,-38 84,-76 126,-115 34,-33 69,-66 102,-101 l 12,-12 45,56 -10,12 c -8,8 -40,42 -44,51 0,2 3,7 3,9 6,10 19,26 26,35 22,29 45,58 67,87 l 145,186 c 28,36 58,71 87,106 20,-16 39,-33 57,-50 33,-31 67,-66 93,-104 -12,-30 -27,-60 -42,-89 l -6,-12 54,-51 10,17 c 29,51 61,101 94,149 l 8,12 -10,10 c -19,21 -39,41 -59,61 l -127,116 -57,52 c -37,34 -73,71 -108,107 l -12,12 -32,-41 3,-10 c 6,-15 12,-30 15,-46 z m -239,320 c -2,-5 -13,-17 -17,-21 -55,-53 -116,-104 -175,-154 -48,-41 -97,-82 -145,-122 -16,-14 -33,-27 -49,-40 -5,-5 -15,-13 -21,-16 -1,0 -2,0 -3,0 -9,5 -36,40 -44,49 l -10,12 -53,-46 10,-14 c 30,-39 61,-79 90,-120 32,-44 63,-88 93,-134 l 10,-14 54,46 -9,13 c -6,10 -28,45 -32,57 1,5 9,13 11,16 16,16 33,31 50,46 29,26 58,51 88,76 65,56 131,112 197,167 10,8 53,44 65,46 1,0 2,-1 3,-1 10,-7 33,-36 41,-46 l 10,-11 53,46 -44,58 c -20,25 -39,51 -57,76 l -102,147 -54,-46 9,-13 c 5,-9 28,-45 31,-57 z m -336,354 -164,-187 c -21,-24 -101,-117 -127,-129 l -1,-1 v 1 c -8,8 -26,47 -32,58 l -7,14 -62,-31 7,-15 c 17,-36 33,-73 49,-110 14,-35 27,-70 41,-106 l 6,-16 62,30 -5,15 c -2,8 -12,39 -11,48 6,17 59,80 70,93 l 251,291 c 38,45 77,91 120,131 l 8,9 -36,88 -432,-15 c -65,-2 -132,-5 -197,-3 -6,0 -27,0 -32,4 -7,5 -24,38 -29,47 l -7,14 -62,-31 7,-16 c 24,-51 46,-103 68,-156 19,-46 38,-92 55,-139 l 6,-17 63,31 -5,15 c -4,11 -18,49 -18,61 v 1 h 1 c 6,3 24,4 31,5 26,2 52,4 78,5 z m -56,761 c -12,0 -43,12 -54,15 l -69,23 c -3,42 -7,84 -9,126 -3,36 -5,72 -7,109 l 40,21 c 19,10 40,18 60,26 4,2 9,3 13,4 5,-12 10,-51 12,-64 l 2,-15 72,6 -2,18 c -5,39 -8,80 -11,120 -3,36 -5,72 -5,108 v 19 l -73,-6 1,-16 c 0,-9 0,-43 -3,-50 -4,-5 -22,-16 -27,-20 -52,-32 -106,-62 -159,-91 l -394,-213 7,-96 516,-188 c 25,-9 49,-18 72,-28 7,-3 24,-10 28,-14 6,-7 11,-42 12,-52 l 2,-16 72,6 -2,18 c -5,51 -10,102 -13,153 -4,54 -7,109 -9,163 v 18 l -73,-6 1,-16 c 0,-12 2,-50 0,-62 z m -472,1027 -68,13 -2,-18 c -7,-52 -14,-105 -23,-157 -10,-59 -20,-117 -32,-175 l -3,-17 68,-13 3,16 c 3,18 8,37 13,54 1,3 3,11 5,14 1,0 2,1 3,1 h 1 c 7,0 22,-2 28,-3 23,-3 45,-7 68,-12 l 184,-34 138,-26 c 30,-5 61,-11 91,-16 15,-2 31,-5 46,-6 41,-3 80,6 117,24 40,19 75,49 105,84 23,27 41,58 47,94 2,14 1,28 0,42 l -2,14 -12,1 c -14,1 -28,2 -41,5 -13,2 -27,7 -39,11 l -11,3 -20,-31 8,-10 c 13,-19 20,-39 16,-63 -1,-6 -3,-13 -8,-16 -7,-5 -40,-1 -49,0 -61,8 -122,18 -182,30 l -349,69 c -24,5 -48,10 -71,15 -9,2 -23,5 -32,9 -1,1 -4,3 -4,4 -3,14 3,62 5,78 z M 3584,3604 c -195,-111 -482,81 -587,-398 220,119 519,197 849,256 51,10 96,14 143,39 30,17 55,39 74,75 37,68 13,93 90,142 28,17 63,33 102,47 l 55,-69 c 37,-48 49,-47 44,-113 -5,-81 -46,-89 -122,-25 -14,-50 16,-75 35,-113 l 352,-12 -29,56 88,156 c 2,28 -37,59 -31,86 11,59 89,20 117,-2 63,-48 122,-137 178,-246 370,-85 714,-199 1015,-359 -35,331 -283,370 -502,412 l 364,-22 c -93,245 -190,248 -595,245 l 398,75 c -89,155 -274,195 -548,90 l 196,152 c -73,57 -192,71 -347,29 l 65,100 c -54,22 -121,28 -171,6 l 39,90 -92,7 c -11,24 15,48 22,72 -34,19 -74,14 -115,0 l 115,333 c -68,1 -101,-21 -110,-57 l -5,189 c -39,-4 -71,-23 -96,-59 -5,44 -4,155 -66,153 -48,-15 -90,-63 -79,-147 l -88,53 c -38,12 -4,-109 -6,-163 -36,8 -85,45 -123,34 l 89,-323 -93,12 27,-89 -119,-4 40,-94 -150,5 c 15,-33 40,-66 43,-99 -161,60 -278,55 -343,-26 l 174,-128 c -235,63 -431,64 -526,-79 l 392,-90 c -229,-31 -409,137 -612,-205 z M 4477,532 c 1859,0 3366,1517 3366,3389 0,4457 -6732,4457 -6732,0 0,-1872 1507,-3389 3366,-3389 z m 0,252 c -1721,0 -3115,1404 -3115,3137 0,4125 6230,4125 6230,0 C 7592,2188 6198,784 4477,784 Z M 2296,5497 c -18,9 -37,12 -57,9 -19,-3 -38,-13 -55,-29 -17,-16 -32,-38 -44,-66 -15,-33 -21,-63 -20,-90 2,-19 8,-37 17,-53 10,-17 21,-28 34,-34 8,-4 15,-4 23,-1 8,3 14,9 18,18 3,7 4,14 2,21 -2,7 -6,14 -13,22 -8,9 -14,18 -19,26 -4,8 -6,18 -7,29 0,11 3,24 9,38 9,20 21,35 35,43 14,8 28,9 41,3 10,-5 17,-12 20,-22 4,-10 5,-21 3,-34 -1,-12 -4,-28 -8,-48 -5,-27 -8,-50 -9,-70 0,-19 4,-37 12,-52 8,-16 20,-28 38,-36 17,-9 35,-11 52,-7 18,3 35,13 50,28 16,16 29,37 41,63 9,20 14,39 16,56 2,18 1,33 -2,47 -3,14 -8,25 -15,34 -6,8 -14,15 -22,19 -7,4 -15,4 -24,1 -8,-3 -14,-8 -18,-17 -4,-8 -5,-14 -3,-20 2,-6 6,-13 12,-22 9,-12 15,-24 18,-35 2,-12 -1,-27 -9,-46 -8,-18 -18,-30 -29,-38 -12,-7 -23,-8 -33,-3 -6,3 -11,7 -14,13 -3,6 -4,13 -5,21 0,8 0,16 1,23 1,7 4,20 7,36 4,21 7,41 9,58 2,18 2,34 -1,48 -2,15 -7,27 -15,39 -8,11 -20,20 -36,28 z m 111,290 25,-41 -83,-122 -46,12 c -17,5 -30,7 -37,7 -8,0 -15,-5 -21,-14 -5,-8 -7,-16 -6,-26 1,-10 5,-17 11,-22 4,-3 9,-5 14,-7 5,-2 12,-4 21,-6 l 233,-58 c 6,-1 14,-3 24,-6 9,-2 17,-3 24,-3 8,-1 15,1 21,5 7,3 14,9 19,17 6,9 9,17 10,25 1,8 1,15 -2,22 -2,7 -5,14 -9,20 -3,7 -9,15 -15,25 l -125,213 c -10,17 -17,27 -24,32 -6,4 -14,6 -23,4 -10,-2 -17,-7 -23,-15 -3,-5 -5,-9 -6,-14 0,-5 0,-9 1,-13 1,-5 3,-10 7,-17 4,-7 7,-13 10,-18 z m -5,-179 61,90 84,-131 z m 428,265 -100,-104 -61,65 84,86 c 7,8 11,16 12,24 0,7 -2,14 -8,20 -5,6 -12,8 -19,8 -7,-1 -14,-5 -22,-13 l -84,-87 -79,84 c -10,10 -20,15 -29,16 -10,0 -18,-4 -26,-11 -7,-8 -11,-17 -11,-27 0,-10 5,-21 15,-31 l 185,-195 c 7,-8 14,-12 21,-15 6,-2 13,-2 20,1 6,2 13,7 20,15 l 120,124 c 8,9 12,17 13,24 0,8 -2,15 -8,21 -5,6 -12,9 -19,8 -8,0 -15,-5 -24,-13 z m 60,371 12,-46 -117,-89 -39,27 c -15,10 -27,17 -34,19 -7,2 -15,0 -24,-7 -7,-5 -12,-13 -13,-22 -2,-10 -1,-18 4,-25 3,-4 6,-7 10,-11 5,-3 11,-7 19,-12 l 203,-132 c 6,-4 13,-9 21,-14 9,-5 16,-9 23,-12 7,-2 14,-3 21,-2 8,1 16,5 23,11 9,6 14,13 17,20 4,7 5,14 5,22 0,7 -1,14 -2,22 -2,7 -4,17 -7,29 l -55,242 c -4,19 -8,32 -12,38 -5,7 -12,11 -21,12 -10,2 -19,-1 -26,-7 -5,-3 -8,-7 -10,-11 -2,-4 -4,-8 -4,-13 0,-4 1,-11 2,-18 2,-8 3,-15 4,-21 z m -59,-167 86,65 39,-152 z m 316,194 -22,-12 -52,101 c -6,13 -14,22 -23,25 -9,3 -18,2 -28,-3 -10,-6 -16,-14 -18,-23 -3,-10 0,-21 6,-34 l 123,-243 c 7,-13 15,-22 24,-24 9,-3 21,-1 34,7 l 103,56 c 15,8 26,15 36,22 9,7 17,14 24,23 7,9 14,20 18,32 3,12 4,24 3,36 -1,13 -5,25 -11,36 -12,24 -28,39 -49,46 -20,7 -45,6 -75,-3 8,12 15,27 19,44 4,18 7,35 9,53 1,17 1,33 0,46 -1,13 -2,22 -4,26 -2,4 -6,7 -10,10 -5,3 -10,4 -16,4 -6,0 -12,-2 -18,-5 -7,-4 -12,-9 -15,-15 -3,-6 -5,-13 -6,-20 -1,-7 -2,-17 -3,-31 l -4,-56 c -1,-21 -3,-37 -6,-49 -3,-12 -8,-22 -14,-29 -5,-7 -14,-14 -25,-20 z m 103,-113 -58,-32 -44,87 56,31 c 16,9 29,14 41,17 12,3 22,3 31,0 8,-4 16,-11 21,-22 5,-9 6,-18 5,-27 -1,-9 -4,-17 -11,-25 -5,-7 -19,-17 -41,-29 z m 99,341 102,-261 c 5,-13 12,-22 21,-26 9,-5 18,-5 28,-1 10,4 16,11 20,20 4,10 3,21 -2,35 l -101,260 c -5,14 -12,23 -21,27 -9,4 -18,4 -28,0 -11,-4 -17,-10 -21,-20 -4,-9 -3,-21 2,-34 z m 617,82 -16,66 c -2,9 -5,16 -7,20 -4,5 -8,9 -13,12 -6,3 -13,6 -21,8 -24,5 -46,8 -66,8 -21,1 -42,-2 -65,-8 -26,-7 -49,-18 -69,-32 -19,-14 -35,-30 -46,-50 -12,-20 -19,-42 -22,-66 -3,-24 -1,-50 6,-77 7,-27 17,-51 30,-71 14,-20 30,-36 49,-47 20,-12 41,-19 65,-21 25,-2 51,0 79,8 23,6 43,14 59,25 16,11 29,23 37,35 9,12 15,25 18,37 3,12 4,22 1,30 -2,9 -7,15 -15,20 -8,4 -16,5 -25,3 -5,-1 -10,-4 -14,-7 -4,-4 -7,-8 -9,-13 -5,-16 -10,-28 -14,-37 -5,-8 -11,-16 -20,-23 -9,-8 -21,-14 -37,-18 -16,-4 -31,-5 -45,-3 -14,2 -27,8 -38,16 -12,8 -22,19 -30,33 -9,15 -15,31 -20,50 -10,40 -8,74 5,101 13,26 36,44 69,53 16,4 32,6 47,5 15,0 31,-2 47,-6 l 14,-57 -54,-14 c -13,-3 -22,-8 -28,-13 -5,-6 -7,-14 -5,-23 2,-8 7,-13 13,-17 7,-4 15,-4 25,-2 l 79,21 c 9,3 17,6 24,9 6,4 10,9 13,16 3,7 2,17 -1,29 z m 68,9 15,-171 c 1,-14 5,-25 13,-31 7,-7 15,-10 26,-9 11,1 20,5 25,13 6,8 9,19 7,34 l -15,174 c -1,20 0,37 3,51 3,13 10,24 21,33 10,8 26,13 46,15 28,3 48,-3 61,-17 13,-14 20,-36 23,-66 l 15,-176 c 1,-15 6,-26 13,-32 7,-7 16,-10 26,-9 11,1 19,5 25,13 6,8 9,19 8,34 l -15,171 c -2,27 -7,50 -14,68 -7,19 -19,34 -35,47 -14,10 -29,18 -47,22 -17,4 -37,5 -60,3 -27,-3 -50,-8 -69,-16 -19,-7 -35,-18 -46,-31 -11,-14 -19,-30 -23,-50 -4,-20 -5,-43 -3,-70 z m 617,-125 -162,2 1,87 148,-2 c 11,0 20,2 25,7 6,5 8,12 8,20 0,8 -2,14 -7,19 -6,6 -14,8 -25,8 l -149,2 1,102 167,-2 c 11,0 20,2 26,7 5,5 8,12 8,21 0,8 -2,15 -8,21 -6,5 -14,8 -25,8 l -195,3 c -16,0 -27,-4 -34,-10 -7,-7 -11,-19 -11,-34 l -2,-268 c 0,-10 2,-19 5,-25 3,-7 7,-12 14,-15 6,-3 15,-5 25,-5 l 189,-2 c 12,0 20,2 26,7 5,5 8,12 8,20 0,8 -3,15 -8,20 -6,6 -14,8 -25,9 z m 374,150 c 3,21 0,41 -9,60 -8,19 -22,34 -42,47 -20,13 -44,22 -73,26 -35,5 -64,3 -88,-7 -17,-7 -32,-17 -44,-32 -12,-14 -19,-28 -21,-43 -2,-9 1,-17 6,-24 5,-7 12,-11 21,-13 8,-1 14,1 20,5 6,4 11,10 16,19 6,11 12,19 19,26 6,7 14,12 24,15 10,4 23,4 38,2 21,-3 38,-11 49,-23 12,-11 17,-25 15,-39 -1,-12 -6,-21 -14,-27 -8,-7 -18,-11 -30,-13 -12,-2 -28,-4 -47,-5 -26,-2 -48,-6 -66,-11 -18,-6 -33,-15 -45,-27 -12,-12 -19,-28 -22,-49 -2,-19 1,-37 9,-54 9,-16 22,-30 41,-41 19,-12 42,-19 69,-23 21,-4 40,-4 57,-1 16,3 30,8 42,16 11,7 20,15 26,24 6,9 10,19 11,28 1,8 0,16 -6,24 -5,8 -12,12 -21,14 -8,1 -14,0 -19,-4 -5,-3 -10,-9 -16,-18 -9,-12 -18,-21 -28,-27 -9,-6 -24,-8 -44,-5 -18,3 -33,9 -43,19 -10,10 -14,20 -13,32 1,7 4,13 8,17 5,5 11,8 18,11 7,3 14,5 21,6 8,1 19,2 36,4 20,1 39,4 56,7 16,3 31,8 43,14 13,6 23,15 31,26 8,12 13,26 15,44 z m 254,-255 -76,20 59,251 c 3,14 2,26 -2,35 -5,8 -13,14 -23,17 -10,2 -19,1 -28,-4 -8,-6 -14,-16 -17,-30 l -59,-251 -76,20 c -12,3 -21,3 -28,-1 -7,-4 -12,-10 -14,-19 -2,-9 -1,-16 4,-23 5,-7 13,-12 25,-15 l 221,-58 c 12,-3 22,-3 29,1 7,4 12,10 14,19 2,9 0,16 -4,23 -5,7 -13,12 -25,15 z m 228,-110 39,94 142,-66 -40,-93 c -5,-14 -6,-25 -3,-34 3,-10 9,-17 19,-21 10,-5 19,-5 28,-1 9,3 16,12 22,25 l 108,257 c 5,13 7,25 3,34 -3,10 -10,17 -20,21 -9,5 -19,5 -28,1 -8,-4 -15,-12 -21,-26 l -46,-109 -142,65 46,110 c 6,13 7,25 4,34 -4,10 -10,17 -20,21 -10,5 -19,5 -28,1 -9,-4 -16,-12 -22,-26 l -107,-256 c -6,-14 -7,-25 -4,-34 3,-10 10,-17 20,-21 9,-5 19,-5 28,-1 9,3 16,12 22,25 z m 358,-240 c 30,-22 60,-34 90,-38 30,-3 58,3 84,18 26,14 49,37 69,68 15,23 25,45 31,68 6,23 7,46 4,68 -3,23 -12,44 -25,64 -13,20 -31,38 -54,55 -23,16 -46,27 -69,32 -23,6 -45,6 -66,2 -21,-5 -40,-15 -59,-29 -18,-15 -35,-33 -49,-55 -15,-23 -25,-46 -31,-69 -6,-24 -7,-46 -3,-68 3,-22 12,-43 25,-63 13,-19 30,-37 53,-53 z m 182,90 c -14,-21 -29,-37 -46,-48 -18,-11 -35,-16 -53,-15 -18,2 -36,8 -53,20 -11,8 -21,19 -28,30 -7,12 -12,25 -13,38 -2,14 0,29 4,45 5,17 12,33 23,50 11,16 23,30 36,40 13,11 26,18 39,21 14,4 27,4 40,1 13,-2 25,-8 37,-16 15,-11 26,-25 34,-42 8,-16 10,-35 7,-57 -2,-21 -11,-43 -27,-67 z m 124,-62 -112,-124 c -10,-10 -14,-21 -15,-31 0,-10 4,-18 12,-26 8,-8 17,-12 26,-11 10,0 19,6 29,16 l 115,127 c 13,14 26,25 38,31 12,7 24,9 37,6 13,-3 27,-12 42,-26 20,-21 30,-40 28,-60 -1,-19 -12,-39 -32,-61 l -116,-128 c -10,-11 -15,-21 -15,-31 0,-10 4,-19 12,-26 8,-8 17,-12 26,-12 10,1 19,6 29,17 l 113,124 c 18,20 31,39 40,56 8,17 11,37 10,58 -2,18 -7,35 -16,51 -8,16 -21,33 -38,49 -20,20 -38,35 -57,45 -18,10 -35,15 -53,15 -17,0 -34,-5 -51,-15 -17,-10 -34,-25 -52,-44 z m 442,-485 c 17,11 29,27 37,46 8,19 9,41 5,64 -4,24 -14,49 -30,74 -20,31 -41,53 -64,65 -17,9 -34,13 -52,13 -18,0 -34,-4 -46,-12 -7,-5 -11,-12 -12,-21 -2,-8 0,-17 5,-25 4,-7 10,-11 16,-13 7,-2 15,-1 25,1 12,2 22,3 31,3 9,-1 18,-4 27,-9 9,-6 18,-15 27,-29 11,-18 17,-36 17,-53 -1,-17 -7,-30 -19,-38 -9,-7 -19,-9 -29,-7 -10,2 -19,7 -29,15 -9,8 -21,19 -35,33 -19,19 -36,34 -52,44 -16,11 -32,16 -49,18 -16,1 -33,-4 -49,-16 -16,-11 -27,-25 -33,-43 -6,-17 -7,-37 -2,-59 4,-22 14,-45 29,-69 12,-19 25,-34 38,-45 13,-10 26,-18 39,-22 13,-4 25,-6 36,-5 10,2 19,5 27,10 6,5 11,12 13,21 2,9 1,17 -4,25 -5,7 -10,12 -16,13 -5,2 -13,2 -23,1 -15,-2 -27,-1 -38,3 -11,4 -22,14 -34,32 -10,16 -15,31 -15,46 1,14 5,24 14,31 6,4 12,5 18,5 7,-1 13,-3 20,-7 6,-4 13,-8 18,-13 6,-5 14,-13 26,-25 15,-14 30,-27 43,-38 13,-11 27,-20 39,-25 13,-5 26,-8 40,-6 13,1 27,7 41,17 z m -51,-356 -61,157 77,33 56,-144 c 5,-11 10,-18 16,-21 7,-4 13,-4 21,-1 7,3 12,8 14,15 2,7 2,16 -3,27 l -56,144 90,38 63,-162 c 4,-11 10,-18 17,-21 7,-4 14,-4 22,-1 7,3 12,9 14,16 3,8 2,17 -2,28 l -74,189 c -6,15 -13,25 -22,29 -9,4 -20,3 -34,-3 l -237,-101 c -9,-4 -16,-8 -21,-14 -4,-5 -7,-12 -7,-19 0,-8 2,-16 6,-26 l 72,-184 c 4,-11 9,-18 16,-21 7,-4 14,-4 21,-1 7,3 12,8 15,16 2,7 1,16 -3,27 z"
   id="path13" />
       </g>
      </g>
     </g>
    </g>
   </g>
  </g>
 </g>
</svg>
