<?xml version="1.0" encoding="UTF-8" standalone="no"?>
<!-- Created with Inkscape (http://www.inkscape.org/) -->

<svg
   version="1.1"
   id="svg1"
   xml:space="preserve"
   width="3300.2339"
   height="1210.5918"
   xmlns:inkscape="http://www.inkscape.org/namespaces/inkscape"
   xmlns:sodipodi="http://sodipodi.sourceforge.net/DTD/sodipodi-0.dtd"
   xmlns="http://www.w3.org/2000/svg"
   xmlns:svg="http://www.w3.org/2000/svg"><defs
     id="defs1" /><sodipodi:namedview
     id="namedview1"
     pagecolor="#505050"
     bordercolor="#eeeeee"
     borderopacity="1"
     inkscape:showpageshadow="0"
     inkscape:pageopacity="0"
     inkscape:pagecheckerboard="0"
     inkscape:deskcolor="#505050" /><inkscape:clipboard
     style="font-variation-settings:normal;opacity:1;vector-effect:none;fill:#9f4e45;fill-opacity:1;stroke-width:1;stroke-linecap:butt;stroke-linejoin:miter;stroke-miterlimit:4;stroke-dasharray:none;stroke-dashoffset:0;stroke-opacity:1;-inkscape-stroke:none;stop-color:#000000;stop-opacity:1;stroke:none"
     min="-4084.0069,812.91134"
     max="-783.77301,2023.5031"
     geom-min="-4084.0069,812.91134"
     geom-max="-783.77301,2023.5031" /><g
     id="g1"
     transform="translate(4084.0069,-812.91134)"><g
       inkscape:groupmode="layer"
       id="layer1"
       inkscape:label="mpesa"><path
         fill="#d8e3d2"
         opacity="1"
         stroke="none"
         d="m -2894.5078,1316.8853 c 0.1036,3.9956 0.2972,7.9914 0.2975,11.987 0.015,200.9814 0.1971,401.9632 -0.1596,602.9439 -0.063,35.571 -17.3615,61.9214 -48.5473,79.0352 -16.3832,8.9905 -33.829,12.7106 -52.6328,12.651 -101.323,-0.3214 -202.6514,0.3707 -303.9697,-0.386 -46.4166,-0.3465 -84.4617,-30.3297 -94.2681,-77.7877 -1.797,-8.6967 -2.3068,-17.7933 -2.3139,-26.7062 -0.1471,-182.9825 -0.1348,-365.9653 0.5946,-549.9066 10.8096,1.151 20.8736,3.2467 30.9307,5.3745 10.3361,2.1868 20.6657,4.4047 30.3086,7.2022 -1.1355,2.8292 -1.9631,5.0642 -1.9698,7.3015 -0.085,28.3089 -0.068,56.6181 -0.018,84.9273 0,2.3084 0.1901,4.6734 0.7108,6.9148 4.613,19.8577 13.2561,37.5921 28.6831,51.3108 17.934,15.9482 38.5656,25.7007 63.0862,25.6994 66.2768,0 132.5536,0.01 198.8305,-0.024 4.3176,0 8.8005,0.3822 12.9259,-0.5962 27.4322,-6.5078 50.8242,-19.1732 65.7401,-44.3469 8.6098,-14.5311 14.1921,-29.8794 14.1222,-47.0679 -0.1547,-37.9669 -0.085,-75.9347 0.3551,-114.4213 19.4056,-11.7144 38.3498,-22.9097 57.294,-34.1051 z"
         id="path2" /><path
         fill="#3ab54b"
         opacity="1"
         stroke="none"
         d="m -3600.567,1545.41 c -0.4674,-101.5181 -0.9348,-202.0394 -1.4021,-302.5608 -0.6273,-0.2102 -1.2546,-0.4203 -1.8819,-0.6305 -44.0134,91.412 -87.5685,183.0469 -131.7071,274.871 -29.9414,0 -59.8522,0 -90.6721,0 -43.9413,-91.2982 -88.051,-182.9462 -132.0859,-274.439 -0.8595,0.1071 -1.2295,0.071 -1.5085,0.2138 -0.2192,0.1119 -0.4144,0.426 -0.4656,0.6812 -0.1299,0.6485 -0.2307,1.3135 -0.2404,1.9733 -0.034,2.3324 -0.032,4.6655 -0.032,6.9983 -0.013,104.6475 -0.025,209.2948 -0.049,313.9423 -2e-4,0.6566 -0.1518,1.3166 -0.2695,1.9683 -0.057,0.3178 -0.1996,0.6202 -0.3034,0.9295 -7.0541,1.913 -111.109,2.3429 -122.8224,0.4131 0,-176.3376 0,-352.7674 0,-529.7936 3.3415,-0.1487 6.257,-0.3898 9.1727,-0.3914 43.9919,-0.024 87.9847,0.1143 131.975,-0.1605 6.4617,-0.04 10.0267,1.5424 13.0647,7.7232 36.8535,74.9779 74.085,149.7697 111.1477,224.645 12.3886,25.0279 24.5766,50.1553 37.6278,76.8131 3.8747,-7.5033 7.137,-13.5726 10.1786,-19.7509 21.0197,-42.695 41.9624,-85.4281 62.9903,-128.1191 22.9396,-46.5722 45.9565,-93.1064 68.9049,-139.6742 2.6454,-5.3682 5.1859,-10.7955 7.5541,-16.2905 1.6579,-3.8468 4.129,-5.608 8.4754,-5.2796 4.6393,0.3504 9.3256,0.077 13.9915,0.077 39.6594,-2e-4 79.3188,-10e-5 118.9782,-10e-5 3.605,0 7.21,0 11.3979,0 0,177.2553 0,353.6907 0,530.7257 -40.4167,0 -80.566,0 -122.0185,0 0,-8.1313 0,-16.0096 0,-24.8845 z"
         id="path3" /><path
         fill="#3ab54b"
         opacity="1"
         stroke="none"
         d="m -1956.2484,1039.568 c 19.616,0 38.232,0 57.5806,0 0,37.3656 0,74.1128 0,111.6539 -92.5732,0 -185.0893,0 -277.3631,0 -2.3009,7.618 -2.9797,80.9386 -1.0085,98.0829 83.6441,0 167.4214,0 251.8343,0 0,36.8899 0,72.7284 0,109.2986 -1.8665,0.2933 -4.0232,0.7926 -6.2029,0.9337 -2.6548,0.1717 -5.3294,0.03 -7.9954,0.045 -76.6001,0.436 -153.2002,0.8695 -229.8003,1.3366 -2.5771,0.016 -5.1521,0.3768 -8.2041,0.6138 0,32.6466 0,64.7926 0,97.9934 95.5437,0 190.6551,0 286.3018,0 0,37.2532 0,73.4583 0,109.6796 -6.7967,2.1057 -408.0019,2.9054 -424.7822,0.7442 0,-176.3289 0,-352.7469 0,-530.3815 119.6038,0 239.1218,0 359.6398,0 z"
         id="path4" /><path
         fill="#3ab54b"
         opacity="1"
         stroke="none"
         d="m -1174.7659,1100.6934 c 8.9485,-20.8199 17.5703,-40.9501 26.1089,-60.885 48.0222,0 94.9685,0 142.9367,0 73.90774,176.2395 147.90725,352.6989 221.94729,529.2546 -7.98609,2.2536 -126.99121,3.0803 -148.12964,1.1501 -11.97559,-30.7014 -24.13232,-61.8672 -36.21655,-92.847 -76.4907,0 -152.0549,0 -228.0335,0 -12.3383,31.1252 -24.5742,61.9926 -36.8605,92.9865 -47.5347,0 -94.6993,0 -143.4537,0 67.4207,-157.0122 134.3977,-312.9908 201.701,-469.6592 m 113.0349,133.195 c -6.1297,-16.0449 -12.2593,-32.0897 -19.2285,-50.3322 -24.7644,63.2312 -48.6263,124.158 -72.6277,185.4414 48.5603,0 95.664,0 143.7793,0 -17.2991,-45.132 -34.2757,-89.4229 -51.9231,-135.1092 z"
         id="path5" /><path
         fill="#3ab54b"
         opacity="1"
         stroke="none"
         d="m -1778.0992,1095.5747 c 20.7949,-24.6685 47.1861,-39.6654 76.2991,-50.2956 23.2329,-8.4829 47.3489,-12.6917 72.0476,-14.5308 78.3425,-5.8336 151.9111,10.4765 221.3206,46.6536 6.708,3.4963 13.0275,7.7386 20.1047,11.9808 -17.636,37.2576 -34.9346,73.8022 -52.5115,110.9354 -3.1658,-1.5861 -5.5195,-2.6523 -7.7676,-3.9085 -39.425,-22.0322 -80.9834,-38.6359 -125.1787,-48.1217 -18.1684,-3.8997 -36.5925,-6.7191 -55.3191,-3.1977 -8.9165,1.6767 -17.664,3.8648 -24.9067,9.5205 -17.2217,13.4482 -16.7771,39.6712 0.7888,54.9521 12.2832,10.6857 26.7852,17.2001 42.1294,22.091 31.3682,9.9981 62.8218,19.7416 94.0623,30.1251 22.0825,7.3396 44.1909,15.0363 63.685,28.1169 31.1387,20.8948 54.6238,47.7544 61.7073,85.8759 8.939,48.1073 3.3762,93.3782 -28.2566,132.9625 -19.4368,24.3229 -44.6948,40.5138 -73.3957,51.5702 -25.8875,9.9728 -52.7969,15.21 -80.4976,17.4008 -73.2761,5.7956 -141.9739,-10.3611 -207.4197,-42.3214 -20.6692,-10.0939 -39.9201,-22.6509 -57.969,-36.9649 -2.321,-1.8409 -4.3823,-4.0095 -7.0053,-6.4344 17.9699,-36.1385 35.8586,-72.1138 53.5722,-107.7369 14.7769,10.486 28.3443,21.233 42.9668,30.2728 38.2258,23.6315 79.1531,40.8393 123.791,48.0159 21.8553,3.5141 43.6563,3.8111 64.7539,-4.6879 14.627,-5.8925 24.5581,-15.7563 26.7295,-31.8987 2.211,-16.4333 -4.5351,-29.0392 -17.3469,-38.9535 -10.6758,-8.2612 -22.6147,-13.9906 -35.439,-17.8345 -26.7392,-8.0145 -53.6506,-15.4673 -80.3056,-23.7482 -25.7219,-7.9908 -51.417,-16.2434 -75.0254,-29.6229 -18.1738,-10.2995 -33.4885,-23.9241 -46.294,-40.4294 -13.9013,-17.9175 -20.6635,-38.7193 -22.9128,-60.7783 -3.0747,-30.158 -0.8447,-59.9823 13.2205,-87.542 5.5471,-10.8691 13.1882,-20.6695 20.3725,-31.4662 z"
         id="path6" /><path
         fill="#3ab54a"
         opacity="1"
         stroke="none"
         d="m -2675.9312,1449.4591 c 0,40.6258 0,80.2557 0,119.7119 -7.71,2.1394 -117.6668,2.8932 -136.9431,1.105 -2.2841,-7.505 -3.424,-499.6286 -1.1663,-530.0089 2.3956,-0.2237 4.926,-0.6652 7.4568,-0.6664 76.3127,-0.037 152.6306,-0.5443 228.9362,0.1938 36.3248,0.3513 72.3283,4.873 106.1097,19.7507 61.5538,27.1092 95.2115,74.3314 101.667,141.2533 3.3602,34.8365 0.9929,69.0271 -10.2483,102.3146 -16.027,47.4582 -47.5657,80.6931 -93.2186,100.8249 -30.5866,13.4876 -62.7782,19.3012 -96.0137,19.5824 -31.6558,0.2678 -63.3158,0.058 -94.9739,0.058 -3.3194,0 -6.6388,0 -11.2846,0 -0.1104,8.5486 -0.2159,16.7168 -0.3212,25.8811 m -0.012,-257.0255 c 0,39.8585 0,79.717 0,120.4555 4.5853,0 7.8579,0 11.1304,0 25.3307,0 50.6678,0.3347 75.9887,-0.1637 10.2203,-0.2011 20.6265,-1.2783 30.5613,-3.6069 24.0833,-5.6449 42.5624,-19.2037 51.3892,-42.8892 7.9724,-21.3928 8.5198,-43.3846 1.347,-65.4299 -6.1538,-18.9139 -18.5964,-32.1026 -36.1788,-40.4546 -12.427,-5.9032 -25.8607,-8.6123 -39.6133,-8.7132 -28.662,-0.2106 -57.3268,-0.075 -85.9903,-0.044 -2.5691,0 -5.138,0.2864 -8.6341,0.4947 0,13.1817 0,25.7666 -1e-4,40.3509 z"
         id="path7" /><path
         fill="#d8e3d2"
         opacity="1"
         stroke="none"
         d="m -3395.9716,1351.8609 c -0.076,-3.3291 -0.2168,-6.6583 -0.2172,-9.9874 -0.012,-108.9285 -0.1443,-217.8572 0.075,-326.7853 0.063,-31.54386 11.6874,-58.34538 36.1597,-78.80204 16.6186,-13.89172 35.8891,-20.97955 57.7422,-20.96643 103.5987,0.0622 207.1973,0.0265 310.7959,0.0257 3.9186,0 7.8372,7e-5 12.5872,7e-5 0.2477,-4.15668 0.5942,-7.36872 0.6045,-10.58173 0.055,-17.32184 -0.3051,-34.65216 0.1269,-51.96332 0.3833,-15.36139 7.0016,-27.65484 20.9762,-34.85345 17.52,-9.0249 39.9115,-5.67676 53.3971,8.10077 6.1214,6.25378 9.699,13.81298 9.6559,23.25903 -0.2601,56.96136 -0.1368,113.92462 -0.1266,170.8873 0.011,62.9584 0.039,125.9169 -0.6229,189.6754 -15.3493,-6.2952 -30.0486,-13.3235 -44.6622,-20.5256 -4.4211,-2.1788 -8.6045,-4.8392 -12.8409,-8.2589 0.078,-15.3128 -0.3386,-29.6632 0.2233,-43.975 0.9159,-23.3315 -6.0626,-44.0318 -20.4315,-62.0282 -17.4191,-21.8164 -39.9099,-35.4003 -68.3784,-35.5798 -69.6639,-0.4393 -139.3322,-0.1471 -208.9988,-0.1107 -2.9811,0 -6.0318,0.051 -8.9318,0.6502 -22.2436,4.5988 -40.9543,15.3311 -55.683,32.7189 -12.5845,14.8566 -21.4257,31.8101 -21.5676,51.4095 -0.4827,66.6617 -0.105,133.3297 -0.3828,200.5585 -12.6182,10.4652 -26.5972,17.3339 -41.3,22.6848 -5.8335,2.1233 -12.1199,3.0023 -18.2001,4.4477 z"
         id="path8" /><path
         fill="#ed1d25"
         opacity="1"
         stroke="none"
         d="m -2952.3769,1182.0648 c 4.2924,2.4399 8.4758,5.1003 12.8969,7.2791 14.6136,7.2021 29.3129,14.2304 44.6655,21.4277 23.3038,10.9621 45.9214,21.8219 69.9098,33.3397 -8.2815,10.568 -15.4154,20.8043 -23.7067,29.9967 -13.7433,15.2371 -27.9552,30.1023 -45.4905,42.26 -19.3501,11.7127 -38.2943,22.908 -58.4177,34.6675 -20.4375,7.6876 -39.3943,15.81 -59.0154,21.7316 -44.1021,13.3098 -89.5979,18.9517 -135.4829,20.4908 -41.8575,1.4041 -83.7237,0.042 -125.3874,-4.7854 -20.4171,-2.3656 -40.7835,-5.1682 -61.1729,-7.7732 -10.3325,-2.2042 -20.6621,-4.4221 -30.9982,-6.6089 -10.0571,-2.1278 -20.1211,-4.2235 -30.9578,-6.2851 -1.7225,-0.1131 -2.6691,-0.274 -3.6237,-1.1355 1.9703,-0.8009 4.0029,-1.248 5.9186,-0.9482 22.2135,3.4771 44.4595,2.5954 66.4855,-0.8015 31.457,-4.8509 61.3503,-15.032 88.9263,-30.9839 14.3042,-8.2746 27.6087,-18.2774 41.9192,-27.9804 60.5201,-46.855 105.9164,-105.3736 141.8661,-171.775 4.0495,1.6539 7.1862,2.742 10.1535,4.1798 14.3285,6.9433 28.5566,14.0946 42.9244,20.9545 16.1377,7.7049 32.3868,15.1766 48.5874,22.7497 z"
         id="path9" /><path
         fill="#9f4e45"
         opacity="1"
         stroke="none"
         d="m -3196.4626,1306.4366 c -13.7562,9.2222 -27.0607,19.225 -41.3649,27.4996 -27.576,15.9519 -57.4693,26.133 -88.9263,30.9839 -22.026,3.3969 -44.272,4.2786 -66.4855,0.8015 -1.9157,-0.2998 -3.9483,0.1473 -6.5901,0.6802 -16.222,-3.4679 -31.7804,-7.3686 -47.3388,-11.2694 -0.012,-0.5002 -0.023,-1.0005 -0.035,-1.5007 1.5576,-0.3308 3.225,-1.2012 4.6557,-0.9097 15.053,3.0689 30.0633,3.2808 45.8271,-0.5078 6.829,-1.7987 13.1154,-2.6777 18.9489,-4.801 14.7028,-5.3509 28.6818,-12.2196 41.9742,-22.9131 30.8449,-21.667 54.4424,-48.7265 76.188,-78.4727 2.3564,3.1067 4.0398,5.1147 5.4931,7.277 8.7297,12.9882 18.6793,24.9419 30.238,35.5032 8.1225,7.4216 16.8491,13.9745 27.4156,17.629 z"
         id="path10" /></g></g></svg>

