<svg width="36" height="36" viewBox="0 0 36 36" fill="none" xmlns="http://www.w3.org/2000/svg">
<path d="M3.41663 15.0833H32.5833" stroke="#0D79DD" stroke-width="2" stroke-miterlimit="10" stroke-linecap="round" stroke-linejoin="round"/>
<path d="M17.3412 30.3955H9.88914C4.71205 30.3955 3.39954 29.1122 3.39954 23.9934V12.0059C3.39954 7.36842 4.47875 5.88091 8.5475 5.64758C8.95583 5.633 9.40789 5.61841 9.88914 5.61841H26.0912C31.2683 5.61841 32.5808 6.90174 32.5808 12.0205V18.4517" stroke="#0D79DD" stroke-width="2" stroke-linecap="round" stroke-linejoin="round"/>
<path d="M9.25 23.8333H15.0833" stroke="#0D79DD" stroke-width="2" stroke-miterlimit="10" stroke-linecap="round" stroke-linejoin="round"/>
<path d="M32.5833 26.75C32.5833 27.8438 32.277 28.8792 31.7374 29.7542C30.7312 31.4458 28.8791 32.5833 26.75 32.5833C24.6208 32.5833 22.7687 31.4458 21.7625 29.7542C21.2229 28.8792 20.9166 27.8438 20.9166 26.75C20.9166 23.5271 23.527 20.9167 26.75 20.9167C29.9729 20.9167 32.5833 23.5271 32.5833 26.75Z" stroke="#0D79DD" stroke-width="2" stroke-miterlimit="10" stroke-linecap="round" stroke-linejoin="round"/>
<path d="M24.4771 26.7493L25.9208 28.1931L29.027 25.3201" stroke="#0D79DD" stroke-width="2" stroke-linecap="round" stroke-linejoin="round"/>
</svg>
