<svg width="36" height="36" viewBox="0 0 36 36" fill="none" xmlns="http://www.w3.org/2000/svg">
<path d="M26.8084 20.2604C26.1959 20.8583 25.8459 21.7187 25.9334 22.6375C26.0646 24.2125 27.5084 25.3646 29.0834 25.3646H31.8542V27.1C31.8542 30.1187 29.3896 32.5833 26.3709 32.5833H9.62921C6.61046 32.5833 4.14587 30.1187 4.14587 27.1V17.2854C4.14587 14.2667 6.61046 11.8021 9.62921 11.8021H26.3709C29.3896 11.8021 31.8542 14.2667 31.8542 17.2854V19.3854H28.9084C28.0917 19.3854 27.348 19.7062 26.8084 20.2604Z" stroke="#DC4D01" stroke-width="2.1875" stroke-linecap="round" stroke-linejoin="round"/>
<path d="M4.14587 18.5979V11.9334C4.14587 10.198 5.21046 8.65208 6.82921 8.03958L18.4084 3.66458C20.2167 2.97916 22.1563 4.32087 22.1563 6.26046V11.8021" stroke="#DC4D01" stroke-width="2.1875" stroke-linecap="round" stroke-linejoin="round"/>
<path d="M33.3983 20.8732V23.8774C33.3983 24.6795 32.7566 25.3357 31.94 25.3648H29.0816C27.5066 25.3648 26.0629 24.2128 25.9316 22.6378C25.8441 21.719 26.1941 20.8586 26.8066 20.2607C27.3462 19.7065 28.09 19.3857 28.9066 19.3857H31.94C32.7566 19.4149 33.3983 20.0711 33.3983 20.8732Z" stroke="#DC4D01" stroke-width="2.1875" stroke-linecap="round" stroke-linejoin="round"/>
<path d="M10.7084 18H20.9167" stroke="#DC4D01" stroke-width="2.1875" stroke-linecap="round" stroke-linejoin="round"/>
</svg>
